<?xml version="1.0" standalone="no"?><!DOCTYPE svg PUBLIC "-//W3C//DTD SVG 1.1//EN" "http://www.w3.org/Graphics/SVG/1.1/DTD/svg11.dtd">
<svg t="1714377992773" class="icon" viewBox="0 0 1024 1024" version="1.1"
    xmlns="http://www.w3.org/2000/svg" p-id="5635" width="64" height="64"
    xmlns:xlink="http://www.w3.org/1999/xlink">
    <path d="M982.5 312.5c-26.25-61.25-62.5-116.25-110-162.5-47.5-47.5-101.25-83.75-162.5-110C647.5 13.75 581.25 0 511.25 0 442.5 0 375 13.75 312.5 40c-61.25 26.25-116.25 62.5-162.5 110-18.75 18.75-35 37.5-50 57.5 0 0-1.25 1.25-1.25 2.5C75 241.25 56.25 276.25 40 312.5 13.75 375 0 442.5 0 511.25s13.75 136.25 40 198.75c26.25 61.25 62.5 116.25 110 162.5s101.25 83.75 162.5 110c62.5 26.25 130 40 198.75 40 68.75 0 136.25-13.75 198.75-40 61.25-26.25 116.25-62.5 162.5-110 47.5-47.5 83.75-101.25 110-162.5 26.25-62.5 40-130 40-198.75C1023.75 442.5 1010 375 982.5 312.5zM897.5 758.75c-36.25-18.75-78.75-35-126.25-47.5 12.5-55 20-113.75 21.25-173.75l176.25 0C963.75 617.5 938.75 693.75 897.5 758.75zM55 538.75l176.25 0c1.25 60 8.75 118.75 21.25 173.75-47.5 12.5-90 28.75-126.25 47.5C83.75 693.75 58.75 617.5 55 538.75zM128.75 260c36.25 18.75 77.5 33.75 125 46.25-13.75 56.25-21.25 116.25-22.5 178.75L55 485C58.75 403.75 85 326.25 128.75 260zM485 485l-200 0c1.25-58.75 8.75-115 21.25-167.5 56.25 11.25 116.25 17.5 178.75 18.75L485 485zM485 538.75l0 142.5c-62.5 1.25-122.5 7.5-180 18.75-11.25-50-18.75-105-20-161.25L485 538.75zM538.75 538.75l200 0c-1.25 56.25-8.75 111.25-20 161.25-56.25-11.25-117.5-17.5-180-18.75L538.75 538.75zM538.75 485 538.75 336.25c62.5-1.25 122.5-7.5 178.75-18.75 12.5 52.5 20 108.75 21.25 167.5L538.75 485zM538.75 282.5l0-225c18.75 5 37.5 13.75 55 28.75 27.5 22.5 52.5 53.75 73.75 95 13.75 26.25 25 53.75 35 83.75C651.25 275 596.25 281.25 538.75 282.5zM430 86.25c17.5-15 36.25-23.75 55-28.75l0 225c-57.5-1.25-112.5-7.5-163.75-17.5 10-30 21.25-58.75 35-83.75C377.5 140 402.5 107.5 430 86.25zM485 735l0 231.25c-18.75-5-37.5-13.75-55-28.75-27.5-22.5-52.5-53.75-73.75-95-13.75-27.5-26.25-57.5-36.25-90C371.25 742.5 427.5 736.25 485 735zM593.75 937.5c-17.5 15-36.25 23.75-55 28.75L538.75 735c57.5 1.25 113.75 7.5 165 17.5-10 32.5-22.5 62.5-36.25 90C646.25 883.75 621.25 915 593.75 937.5zM792.5 485c-1.25-62.5-10-122.5-22.5-178.75 46.25-12.5 88.75-27.5 125-46.25 43.75 66.25 70 143.75 75 225L792.5 485zM835 187.5c8.75 8.75 17.5 18.75 26.25 28.75-31.25 15-66.25 27.5-106.25 37.5-11.25-35-25-67.5-40-97.5-15-30-32.5-55-51.25-76.25C727.5 102.5 786.25 138.75 835 187.5zM358.75 80c-18.75 21.25-36.25 47.5-51.25 76.25-15 30-28.75 62.5-40 97.5-40-10-75-22.5-106.25-37.5 8.75-10 16.25-18.75 26.25-28.75C237.5 138.75 295 102.5 358.75 80zM187.5 835c-10-10-20-21.25-28.75-32.5 31.25-15 67.5-28.75 107.5-38.75 11.25 37.5 25 71.25 41.25 102.5 15 30 32.5 55 51.25 76.25C295 921.25 237.5 885 187.5 835zM663.75 943.75c18.75-21.25 36.25-47.5 51.25-76.25 16.25-31.25 30-66.25 41.25-102.5 40 10 76.25 23.75 107.5 38.75-8.75 11.25-18.75 21.25-28.75 32.5C786.25 885 727.5 921.25 663.75 943.75z" p-id="5636"></path>
</svg>