<?xml version="1.0" standalone="no"?><!DOCTYPE svg PUBLIC "-//W3C//DTD SVG 1.1//EN" "http://www.w3.org/Graphics/SVG/1.1/DTD/svg11.dtd">
<svg t="1714271453774" class="icon" viewBox="0 0 1024 1024" version="1.1"
    xmlns="http://www.w3.org/2000/svg" p-id="24032" width="512" height="512"
    xmlns:xlink="http://www.w3.org/1999/xlink">
    <path d="M431.064982 759.30555a91.424024 91.424024 0 1 0 90.92405-91.923999 91.552589 91.552589 0 0 0-90.92405 91.923999z m0 0" fill="#000000" p-id="24033"></path>
    <path d="M509.203953 0.000457C226.946563 1.586093-1.499218 232.546034 0.029277 514.81771S232.531999 1025.520882 514.78939 1023.992386c2.057041 0 3.999801-0.14285 6.071126-0.14285 1.014235 0 2.042756 0.099995 3.085561 0.08571v-0.22856c278.014744-6.428252 501.560769-235.302583 499.975134-514.474413C1022.506996 239.302841 811.417494 18.856662 546.130688 1.328962c-0.91424-0.099995-1.82848-0.099995-2.62844-0.214275-5.256881-0.414265-10.642328-0.499975-15.884925-0.699965-3.085561-0.099995-6.071127-0.42855-9.156687-0.414265v0.22856c-3.199841 0-6.185407-0.19999-9.270968-0.17142z m10.099498 173.648507A91.424024 91.424024 0 1 1 428.379402 265.701528a91.552589 91.552589 0 0 1 90.924049-91.923999z m468.091005 335.697589c1.4285 260.087065-207.34683 473.105042-466.73393 477.833378-124.579518-1.02852-226.0459-102.180632-226.717295-227.217271-0.699965-126.036589 101.252107-229.102891 227.302981-229.802856 146.164159-0.785675 264.472561-120.394012 263.6726-266.558171A263.686886 263.686886 0 0 0 708.565467 79.310798c163.491869 74.524865 277.857609 238.930974 278.900414 430.121465z m0 0" fill="#000000" p-id="24034"></path>
</svg>