<?xml version="1.0" encoding="UTF-8"?>
<svg width="16px" height="16px" viewBox="0 0 16 16" version="1.1" xmlns="http://www.w3.org/2000/svg" xmlns:xlink="http://www.w3.org/1999/xlink">
    <title>max</title>
    <g id="page" stroke="none" stroke-width="1" fill="none" fill-rule="evenodd">
        <g id="l1" transform="translate(-1846.000000, -12.000000)">
            <g id="l2" transform="translate(10.000000, 6.000000)">
                <g id="l3" transform="translate(1836.000000, 6.000000)">
                    <polygon id="path" points="0 0 16 0 16 16 0 16"></polygon>
                    <path d="M12.8461538,15 L3.15384615,15 C1.96431731,15 1,14.0356827 1,12.8461538 L1,3.15384615 C1,1.96431731 1.96431731,1 3.15384615,1 L12.8461538,1 C14.0356827,1 15,1.96431731 15,3.15384615 L15,12.8461538 C15,14.0356827 14.0356827,15 12.8461538,15 Z M13.25,3.70454545 C13.25,3.1773679 12.8226321,2.75 12.2954545,2.75 L3.70454545,2.75 C3.1773679,2.75 2.75,3.1773679 2.75,3.70454545 L2.75,12.2954545 C2.75,12.8226321 3.1773679,13.25 3.70454545,13.25 L12.2954545,13.25 C12.8226321,13.25 13.25,12.8226321 13.25,12.2954545 L13.25,3.70454545 Z" id="形状" fill="#FFFFFF" fill-rule="nonzero"></path>
                </g>
            </g>
        </g>
    </g>
</svg>