<?xml version="1.0" encoding="UTF-8"?>
<svg width="16px" height="16px" viewBox="0 0 16 16" version="1.1" xmlns="http://www.w3.org/2000/svg" xmlns:xlink="http://www.w3.org/1999/xlink">
    <title>normal</title>
    <g id="page" stroke="none" stroke-width="1" fill="none" fill-rule="evenodd">
        <g id="l1" transform="translate(-1492.000000, -12.000000)">
            <g id="l2" transform="translate(1492.000000, 12.000000)">
                <polygon id="路path径" points="0 0 16 0 16 16 0 16"></polygon>
                <path d="M9.46153846,15 L2.53846154,15 C1.68879808,15 1,14.3112019 1,13.4615385 L1,6.53846154 C1,5.68879808 1.68879808,5 2.53846154,5 L9.46153846,5 C10.3112019,5 11,5.68879808 11,6.53846154 L11,13.4615385 C11,14.3112019 10.3112019,15 9.46153846,15 Z M9.22727273,7.50355912 C9.22727273,7.10190003 8.90165909,6.77628639 8.5,6.77628639 L3.5,6.77628639 C3.09834091,6.77628639 2.77272727,7.10190003 2.77272727,7.50355912 L2.77272727,12.5179518 C2.77272727,12.9196109 3.09834091,13.2452246 3.5,13.2452246 L8.5,13.2452246 C8.90165909,13.2452246 9.22727273,12.9196109 9.22727273,12.5179518 L9.22727273,7.50355912 Z" id="形状" fill="#FFFFFF" fill-rule="nonzero"></path>
                <path d="M13.4615385,1 C14.3112019,1 15,1.68879808 15,2.53846154 L15,9.46153846 C15,10.3112019 14.3112019,11 13.4615385,11 L11,11 L11,9.245 L12.5,9.24522457 C12.9016591,9.24522457 13.2272727,8.91961093 13.2272727,8.51795184 L13.2272727,3.50355912 C13.2272727,3.10190003 12.9016591,2.77628639 12.5,2.77628639 L7.5,2.77628639 C7.09834091,2.77628639 6.77272727,3.10190003 6.77272727,3.50355912 L6.772,5 L5,5 L5,2.53846154 C5,1.68879808 5.68879808,1 6.53846154,1 L13.4615385,1 Z" id="形状结合" fill="#FFFFFF" fill-rule="nonzero"></path>
            </g>
        </g>
    </g>
</svg>